<?xml version="1.0" encoding="UTF-8"?> <svg xmlns="http://www.w3.org/2000/svg" xmlns:xlink="http://www.w3.org/1999/xlink" version="1.1" id="Layer_1" x="0px" y="0px" viewBox="0 0 133.9 37.5" style="enable-background:new 0 0 133.9 37.5;" xml:space="preserve"> <style type="text/css"> .st0{fill:#00B3F0;} .st1{clip-path:url(#SVGID_00000057143407235884955440000011435692711262976427_);} .st2{clip-path:url(#SVGID_00000031889820197527893960000002447482268338303129_);} .st3{fill:none;stroke:#66A8BF;stroke-width:0.3905;stroke-linecap:round;} .st4{fill:none;stroke:#A8D6D8;stroke-width:0.1627;stroke-linecap:round;} .st5{fill:#E86C25;} .st6{fill:#00395C;} .st7{fill:#536E8D;} .st8{fill:#1EA2A6;} .st9{fill:#00888A;} .st10{fill:#00AEEF;} </style> <g> <path class="st0" d="M8.2,10.9V9.6c0-3.6,1.2-4.3,2.4-4.3c1.3,0,2.2,0.9,2.2,3.6c0,2.4-0.6,3.6-2.3,5.3l-5.6,5.7 C1.1,23.7,0,27.8,0,32.3h21.2v-6.4H10.1c0.3-1,1.4-1.9,2.1-2.6l5-4.9c2.4-2.4,4-5.2,4-9.6C21.2,4,19.3,0,10.8,0c-4.4,0-7,1.1-8.6,3 c-1.5,1.9-2,4.6-2,7.9H8.2L8.2,10.9z M22.8,16.4c0,13,3.4,16.4,11,16.4c7.6,0,11-3.4,11-16.4c0-13-3.4-16.4-11-16.4 C26.2,0,22.8,3.4,22.8,16.4L22.8,16.4z M31.3,11.1c0-4.6,0.7-5.8,2.5-5.8c1.8,0,2.5,1.2,2.5,5.8v10.7c0,4.6-0.7,5.8-2.5,5.8 c-1.8,0-2.5-1.2-2.5-5.8V11.1L31.3,11.1z"></path> <g> <defs> <polygon id="SVGID_1_" points="16.5,33.1 16.5,0.5 120.8,0.5 120.8,33.1 16.5,33.1 "></polygon> </defs> <defs> <path id="SVGID_00000116914489904260410070000008193723567251804078_" d="M16.5,31.8c0.7,0.4,1.6,0.7,2.4,0.9 c0.8,0.2,3.3,0.4,4.2,0.4c0.9,0,6.8,0,9.1-0.9c0.9-0.3,2.2-1,3.4-1.8c4.1-2.9,9.5-7.8,14.7-7c8.6,1.3,13.4,0.9,15.4,0.7 c6-0.7,11-6.9,11.8-8.2c3.7-6.1,9.9-7,10.9-7.3c1-0.3,4.3-0.1,8.8-0.1c0.7,0,5-0.1,7-0.5c2.8-0.6,6.2-1.9,7.3-2.4 c1-0.5,7.9-3.7,8.2-3.9c0.3-0.2,1-0.6,1-0.6c-3.4-0.5-5.9,0.4-7.7,1.1c-1.9,0.7-4.6,2.3-9,3.2c-4.3,0.8-8.9,1.2-10.3,1.2 c-1.1,0-6.8,0.8-8.9,1.3c-2,0.5-4.5,1.2-6.4,2c-1.8,0.8-1.5,0.6-5.9,3.4c-6,3.8-9.5,3.3-12.9,3.4c-3.9,0-10.2,0.9-12.4,1.7 c-2.2,0.8-3.5,1.4-4.6,2c-0.7,0.4-2.3,1-4.3,3.1c-2,2-3.3,3.2-4.3,4c-1,0.8-2.5,2.4-4.9,3.2c-2.3,0.8-5.6,1.2-8.5,1.3 C18.5,32,16.5,31.8,16.5,31.8L16.5,31.8L16.5,31.8z"></path> </defs> <clipPath id="SVGID_00000085231898525726699430000017162667942140989084_"> <use xlink:href="#SVGID_1_" style="overflow:visible;"></use> </clipPath> <clipPath id="SVGID_00000173145871133174423450000010811804692267943066_" style="clip-path:url(#SVGID_00000085231898525726699430000017162667942140989084_);"> <use xlink:href="#SVGID_00000116914489904260410070000008193723567251804078_" style="overflow:visible;"></use> </clipPath> <g style="clip-path:url(#SVGID_00000173145871133174423450000010811804692267943066_);"> <defs> <rect id="SVGID_00000136400958134871789300000012618124053062930107_" x="16.5" y="0.9" width="104.4" height="32.4"></rect> </defs> <clipPath id="SVGID_00000097480983673142275440000009143525661859577237_"> <use xlink:href="#SVGID_00000136400958134871789300000012618124053062930107_" style="overflow:visible;"></use> </clipPath> <g style="clip-path:url(#SVGID_00000097480983673142275440000009143525661859577237_);"> <image style="overflow:visible;" width="224" height="72" transform="matrix(0.48 0 0 -0.48 15.334 34.5921)"> </image> </g> </g> </g> <path class="st3" d="M16.2,31.8c4.2,0.3,14.1-0.1,18.1-3.7c4.4-3.9,4.9-8.2,13.8-8c8.8,0.3,21.3-1.4,30.4-6.6 c8.6-4.9,13.2-8.9,26.9-8.3c8.1,0.4,11.6-1.8,13.7-3.3"></path> <path class="st4" d="M15.4,33.5c0.8-0.5,1.7-0.5,2.7-0.4c1,0.1,2.9,0.1,4.4-1.2c1.6-1.3,2.4-1.4,4-1.5c1.6-0.1,4.9-0.1,7.7-1.4 c2.7-1.3,6.7-3.2,8.4-4c4.4-2.1,7-5.5,8.1-6.6c1.1-1.2,3.6-2.5,6.1-2.6c2.5-0.1,4,0.1,6.6,0.7c2.6,0.6,9.3-0.2,11.1-1 c1.9-0.8,7.2-3.1,15.1-8.1c2.8-1.7,5.1-2.4,7.4-2.1c2.2,0.3,3.1,0.2,5.7,0.8c7.1,1.6,10.3-0.9,10.3-0.9"></path> <path class="st5" d="M124.9,23.6c0,0-0.2,1.2-0.1,2.4c0.2,1.3,0.2,2-0.6,2.1c-0.7,0.1-1.6-0.1-1.4-1c0.2-0.9,0.7-3-0.1-3.5 c-0.8-0.5-2.6-1.6-3-2.6c-0.5-1-0.5-1.9-1.5-2.6c-1-0.6-1.6-3.4-1-3c0.6,0.5,0.8,1.5,1.2,1.6c0.4,0.1,0.5-1.2,0.3-2.2 c-0.2-1,0.9-1.8,1-0.5c0.1,1.3-0.2,2.8,0.2,4.1c0.4,1.3,1.8,3.4,3.1,3.1c1.3-0.3-1.1-2.4-1.4-3.2c-0.3-0.8-0.5-4-0.4-5.7 c0.1-1.7,0.2-2.7,0.6-2.6s0.6,1.4,0.4,3.6c-0.1,2.3,0.2,4.5,0.8,4.6c0.6,0,0.7-1.1,0.5-2.3c-0.3-1.2-0.1-2.5,0.2-3.5 c0.3-1-0.1-3.5,0.5-3.5c0.6,0,0.8,1.7,0.7,2.9c-0.2,1.2-0.6,3.2,0,3.3c0.6,0,1.1-0.7,1.1-1.8c0-1.2,0.4-1.9,0.8-1.6 c0.4,0.3,0.4,2.2-0.1,3.1c-0.4,0.9-1.4,1.4-1.7,2.3c-0.4,0.9-0.6,4.3,0.2,4.3c0.7,0,2.4-0.7,2.5-1.8c0.1-1-0.8-2.1-0.8-2.8 c0-0.6,0.6-1.3,0.6-0.6c0,0.7,0.3,1.1,0.6,0.8c0.3-0.3,0.4-2,0.3-3.4c-0.1-1.3,0.2-3.5,1-3.2s0,2.8,0.2,4c0.1,1.2-0.3,2.3-0.5,3.2 s0.2,1.6,0.8,1.2c0.6-0.4,0.7-1.5,0.9-2.8c0.2-1.3,0.5-2.3,0.6-3.4c0.1-1.1,0.9-1,0.9,0.1c0,1.1-0.6,2.7-0.2,2.9 c0.4,0.2,0.8-0.6,1-1.5c0.2-0.9,1.1-0.6,0.6,0.7c-0.4,1.3-1.5,1.6-1.7,2.2c-0.2,0.6-0.5,1.8-1.5,2.6s-1.7,0.7-2.4,1.5 C127.3,22,125.4,22.8,124.9,23.6L124.9,23.6z"></path> <path class="st6" d="M58.8,7.7h-3v3.8h0c-0.5-0.7-1.3-1.1-2.2-1.1c-2.7,0-3.4,2.3-3.4,4.1c0,2,1.1,4.2,3.3,4.2 c1.5,0,1.9-0.6,2.3-1.1h0v0.9h2.9V7.7L58.8,7.7z M55.9,14.7c0,0.9-0.2,2-1.3,2c-1.1,0-1.3-1-1.3-2c0-0.9,0.2-2,1.3-2 C55.6,12.7,55.9,13.7,55.9,14.7L55.9,14.7z M62.7,13.8c0.1-0.9,0.7-1.3,1.6-1.3c0.8,0,1.3,0.6,1.3,1.3H62.7L62.7,13.8z M68.5,15.4 c0-3.1-1.4-4.8-4.5-4.8c-2.5,0-4.2,1.9-4.2,4.2c0,2.6,1.9,4.1,4.4,4.1c1.8,0,3.5-0.8,4.1-2.5h-2.8c-0.2,0.4-0.8,0.6-1.3,0.6 c-0.9,0-1.5-0.6-1.5-1.5H68.5L68.5,15.4z M71.9,13.8c0.1-0.9,0.7-1.3,1.6-1.3c0.8,0,1.3,0.6,1.3,1.3H71.9L71.9,13.8z M77.7,15.4 c0-3.1-1.4-4.8-4.5-4.8c-2.5,0-4.2,1.9-4.2,4.2c0,2.6,1.9,4.1,4.4,4.1c1.8,0,3.5-0.8,4.1-2.5h-2.8c-0.2,0.4-0.8,0.6-1.3,0.6 c-0.9,0-1.5-0.6-1.5-1.5H77.7L77.7,15.4z M81.2,14.7c0-0.9,0.2-2,1.3-2c1.1,0,1.3,1,1.3,2c0,0.9-0.2,2-1.3,2 C81.5,16.7,81.2,15.6,81.2,14.7L81.2,14.7z M78.3,21.2h3v-3.4h0c0.5,0.7,1.3,1.1,2.2,1.1c2.7,0,3.4-2.3,3.4-4.1 c0-2-1.1-4.2-3.3-4.2c-1.5,0-1.9,0.6-2.3,1.1h0v-0.9h-2.9V21.2L78.3,21.2z"></path> <path class="st7" d="M96.9,13c-0.1-2-2.1-2.5-3.8-2.5c-1.6,0-3.7,0.5-3.7,2.5c0,1.4,0.9,2.1,3.2,2.5c1.4,0.2,1.7,0.4,1.7,0.8 c0,0.5-0.6,0.6-1,0.6c-0.4,0-0.7-0.1-0.8-0.2c-0.2-0.2-0.4-0.4-0.4-0.7h-2.9c0,2,2.1,2.8,4,2.8c1.9,0,4-0.6,4-2.8 c0-1.3-0.9-1.9-1.9-2.2c-1-0.3-2.2-0.4-2.7-0.6c-0.2-0.1-0.4-0.2-0.4-0.4c0-0.5,0.5-0.6,0.9-0.6c0.2,0,0.5,0.1,0.7,0.2 c0.2,0.1,0.3,0.3,0.4,0.6H96.9L96.9,13z M100.4,13.8c0.1-0.9,0.7-1.3,1.6-1.3c0.8,0,1.3,0.6,1.3,1.3H100.4L100.4,13.8z M106.2,15.4 c0-3.1-1.4-4.8-4.5-4.8c-2.5,0-4.2,1.9-4.2,4.2c0,2.6,1.9,4.1,4.4,4.1c1.8,0,3.5-0.8,4.1-2.5h-2.8c-0.2,0.4-0.8,0.6-1.3,0.6 c-0.9,0-1.5-0.6-1.5-1.5H106.2L106.2,15.4z M112,15.8c0,0.8-0.6,1.2-1.3,1.2c-0.6,0-0.9-0.4-0.9-0.7c0-0.5,0.4-0.7,1-0.9 c0.4-0.1,0.8-0.2,1.2-0.4V15.8L112,15.8z M114.9,13.6c0-1.5,0-3.1-3.8-3.1c-0.9,0-1.9,0.1-2.7,0.5c-0.8,0.4-1.3,1-1.4,2.1h2.8 c0-0.3,0.2-0.8,1.1-0.8c0.5,0,1,0.2,1,0.7c0,0.5-0.4,0.6-0.8,0.7c-1.5,0.3-4.5,0.2-4.5,2.7c0,1.7,1.3,2.4,2.8,2.4 c1,0,1.9-0.2,2.6-0.9h0c0,0.2,0,0.5,0.1,0.7h3.1c-0.3-0.5-0.4-1.2-0.4-1.8V13.6L114.9,13.6z"></path> <path class="st8" d="M85.3,24c0-1.3-0.4-2.2-2.1-2.2c-1.7,0-2.2,1.1-2.2,2.6c0,1.6,0.2,3,2.2,3c1.5,0,2.1-0.7,2.1-2.3h-1.5 c0,0.9-0.1,1.3-0.6,1.3c-0.5,0-0.6-0.6-0.6-1.8c0-1.1,0.1-1.8,0.6-1.8c0.4,0,0.6,0.3,0.6,1.1H85.3L85.3,24z M88.5,24.7 c0,1.3-0.1,1.8-0.6,1.8c-0.5,0-0.6-0.5-0.6-1.8c0-1.3,0.1-1.8,0.6-1.8C88.4,22.9,88.5,23.3,88.5,24.7L88.5,24.7z M87.9,27.5 c1.8,0,2.2-1.2,2.2-2.8s-0.2-2.8-2.2-2.8c-1.8,0-2.2,1.2-2.2,2.8C85.7,26.3,86,27.5,87.9,27.5L87.9,27.5z M92.2,23.6 c0-0.5,0.1-0.7,0.6-0.7c0.4,0,0.5,0.2,0.5,0.5c0,0.4-0.1,0.5-0.6,0.6c-0.4,0.1-1,0.2-1.4,0.4c-0.4,0.2-0.7,0.7-0.7,1.4 c0,1.2,0.5,1.6,1.4,1.6c0.5,0,1-0.3,1.3-0.7h0c0,0.2,0,0.4,0.1,0.6h1.5c-0.2-0.2-0.2-0.7-0.2-1.2v-2.7c0-1.1-0.6-1.6-1.9-1.6 c-0.7,0-1.1,0.1-1.5,0.3c-0.4,0.3-0.6,0.7-0.6,1.4H92.2L92.2,23.6z M92.1,25.7c0-0.3,0.1-0.5,0.2-0.6c0.1-0.1,0.4-0.1,0.9-0.4 c0,0.2,0,0.5,0,0.9c0,0.5-0.3,0.7-0.6,0.7C92.3,26.4,92.1,26.1,92.1,25.7L92.1,25.7z M95.7,27.3h1.6v-7h-1.6V27.3L95.7,27.3z M98.2,27.3h1.6V22h-1.6V27.3L98.2,27.3z M98.2,21.4h1.6v-1.2h-1.6V21.4L98.2,21.4z M100.9,26c0,1.2,0.3,1.4,1.4,1.4 c0.3,0,0.6,0,0.9-0.1v-1.1c-0.1,0-0.2,0-0.2,0c-0.4,0-0.5-0.1-0.5-0.5v-2.7h0.7V22h-0.7v-1.6h-1.6V22h-0.7v1.1h0.7V26L100.9,26z M103.8,27.3h1.6V22h-1.6V27.3L103.8,27.3z M103.8,21.4h1.6v-1.2h-1.6V21.4L103.8,21.4z M108.9,24.7c0,1.3-0.1,1.8-0.6,1.8 c-0.5,0-0.6-0.5-0.6-1.8c0-1.3,0.1-1.8,0.6-1.8C108.8,22.9,108.9,23.3,108.9,24.7L108.9,24.7z M108.3,27.5c1.8,0,2.2-1.2,2.2-2.8 s-0.2-2.8-2.2-2.8c-1.8,0-2.2,1.2-2.2,2.8C106.1,26.3,106.4,27.5,108.3,27.5L108.3,27.5z M111.2,27.3h1.6v-3.5 c0-0.5,0.3-0.8,0.6-0.8c0.3,0,0.5,0.2,0.5,0.6v3.6h1.6v-4c0-1-0.5-1.5-1.4-1.5c-0.6,0-1.1,0.3-1.3,0.8h0V22h-1.5V27.3L111.2,27.3z"></path> <path class="st9" d="M31.1,24c0-1.3-0.4-2.2-2.1-2.2c-1.7,0-2.2,1.1-2.2,2.6c0,1.6,0.2,3,2.2,3c1.5,0,2.1-0.7,2.1-2.3h-1.5 c0,0.9-0.1,1.3-0.6,1.3c-0.5,0-0.6-0.6-0.6-1.8c0-1.1,0.1-1.8,0.6-1.8c0.4,0,0.6,0.3,0.6,1.1H31.1L31.1,24z M34.3,24.7 c0,1.3-0.1,1.8-0.6,1.8c-0.5,0-0.6-0.5-0.6-1.8c0-1.3,0.1-1.8,0.6-1.8C34.2,22.9,34.3,23.3,34.3,24.7L34.3,24.7z M33.7,27.5 c1.8,0,2.2-1.2,2.2-2.8s-0.2-2.8-2.2-2.8c-1.8,0-2.2,1.2-2.2,2.8C31.5,26.3,31.8,27.5,33.7,27.5L33.7,27.5z M36.6,27.3h1.6v-3.5 c0-0.5,0.3-0.8,0.6-0.8c0.3,0,0.5,0.2,0.5,0.6v3.6h1.6v-4c0-1-0.5-1.5-1.4-1.5c-0.6,0-1.1,0.3-1.3,0.8h0V22h-1.5V27.3L36.6,27.3z M41.3,25.6v0.2c0,1.1,0.6,1.6,2,1.6c1.3,0,2-0.7,2-1.7c0-2.1-2.6-1.4-2.6-2.4c0-0.3,0.1-0.5,0.5-0.5c0.3,0,0.5,0.1,0.5,0.6v0.1 h1.4v-0.2c0-0.8-0.4-1.5-1.9-1.5c-1.3,0-2,0.5-2,1.6c0,1.1,0.6,1.4,1.9,1.8c0.5,0.2,0.6,0.4,0.6,0.7c0,0.3-0.2,0.5-0.6,0.5 c-0.3,0-0.4-0.1-0.5-0.2c-0.1-0.2-0.1-0.4-0.1-0.6H41.3L41.3,25.6z M50.1,24.9c0-1.8-0.1-3.1-2.1-3.1c-1.7,0-2.2,1.1-2.2,2.6 c0,1.6,0.2,3,2.2,3c1.3,0,2-0.6,2.1-2h-1.5c0,0.7-0.2,1-0.6,1c-0.5,0-0.6-0.4-0.6-1.2v-0.3H50.1L50.1,24.9z M47.4,24 c0-0.7,0.1-1.2,0.6-1.2c0.4,0,0.5,0.4,0.5,1.2H47.4L47.4,24z M50.7,27.3h1.6v-3c0-0.7,0.4-1,1.1-1c0.2,0,0.3,0,0.4,0v-1.5 c-0.1,0-0.2,0-0.3,0c-0.7,0-1.1,0.4-1.3,0.9h0V22h-1.5V27.3L50.7,27.3z M55.3,27.3h1.9l1.3-5.3H57l-0.6,3.9h0L55.7,22H54L55.3,27.3 L55.3,27.3z M60.3,23.6c0-0.5,0.1-0.7,0.6-0.7c0.4,0,0.5,0.2,0.5,0.5c0,0.4-0.1,0.5-0.6,0.6c-0.4,0.1-1,0.2-1.4,0.4 c-0.4,0.2-0.7,0.7-0.7,1.4c0,1.2,0.5,1.6,1.4,1.6c0.5,0,1-0.3,1.3-0.7h0c0,0.2,0,0.4,0.1,0.6h1.5c-0.2-0.2-0.2-0.7-0.2-1.2v-2.7 c0-1.1-0.6-1.6-1.9-1.6c-0.7,0-1.1,0.1-1.5,0.3c-0.4,0.3-0.6,0.7-0.6,1.4H60.3L60.3,23.6z M60.3,25.7c0-0.3,0.1-0.5,0.2-0.6 c0.1-0.1,0.4-0.1,0.9-0.4c0,0.2,0,0.5,0,0.9c0,0.5-0.3,0.7-0.6,0.7C60.5,26.4,60.3,26.1,60.3,25.7L60.3,25.7z M64,26 c0,1.2,0.3,1.4,1.4,1.4c0.3,0,0.6,0,0.9-0.1v-1.1c-0.1,0-0.2,0-0.2,0c-0.4,0-0.5-0.1-0.5-0.5v-2.7h0.7V22h-0.7v-1.6H64V22h-0.7v1.1 H64V26L64,26z M66.9,27.3h1.6V22h-1.6V27.3L66.9,27.3z M66.9,21.4h1.6v-1.2h-1.6V21.4L66.9,21.4z M72,24.7c0,1.3-0.1,1.8-0.6,1.8 c-0.5,0-0.6-0.5-0.6-1.8c0-1.3,0.1-1.8,0.6-1.8C71.9,22.9,72,23.3,72,24.7L72,24.7z M71.4,27.5c1.8,0,2.2-1.2,2.2-2.8 s-0.2-2.8-2.2-2.8c-1.8,0-2.2,1.2-2.2,2.8C69.2,26.3,69.5,27.5,71.4,27.5L71.4,27.5z M74.3,27.3h1.6v-3.5c0-0.5,0.3-0.8,0.6-0.8 c0.3,0,0.5,0.2,0.5,0.6v3.6h1.6v-4c0-1-0.5-1.5-1.4-1.5c-0.6,0-1.1,0.3-1.3,0.8h0V22h-1.5V27.3L74.3,27.3z"></path> <path class="st10" d="M43.6,37.5H44c1,0,1.3-0.2,2-1.7l1.9-4h-1.1l-1.2,3h0l0-3h-1.1l0.3,4.3c-0.1,0.4-0.3,0.6-0.7,0.6 c-0.1,0-0.2,0-0.3,0L43.6,37.5L43.6,37.5z M51,34.1l0-0.2c0.3-1.3,0.2-2.2-1.1-2.2c-1.5,0-1.9,1.1-2.2,2.2 c-0.2,1.1-0.4,2.3,1.2,2.3c1,0,1.6-0.6,1.9-1.6h-1c-0.2,0.5-0.4,0.8-0.8,0.8c-0.4,0-0.4-0.5-0.3-1l0.1-0.3H51L51,34.1z M49,33.4 l0-0.2c0.1-0.4,0.3-0.9,0.7-0.9c0.5,0,0.5,0.4,0.3,1H49L49,33.4z M52.9,33.1l0-0.1c0.1-0.3,0.3-0.6,0.6-0.6c0.4,0,0.5,0.2,0.4,0.5 c-0.1,0.3-0.2,0.4-0.5,0.5l-0.7,0.2c-0.8,0.2-1.2,0.5-1.4,1.3c-0.1,0.6,0,1.2,0.8,1.2c0.5,0,0.9-0.1,1.2-0.6h0c0,0.1,0,0.3,0,0.4 h1.1c-0.1-0.2,0-0.4,0-0.8L55,33c0.2-0.8,0-1.3-1.3-1.3c-0.8,0-1.6,0.3-1.8,1.3l0,0.1H52.9L52.9,33.1z M53.5,34.8 c-0.1,0.5-0.5,0.7-0.8,0.7c-0.3,0-0.4-0.3-0.3-0.6c0.1-0.4,0.3-0.6,0.8-0.7c0.1,0,0.3-0.1,0.5-0.2L53.5,34.8L53.5,34.8z M55.2,36.1 h1.1l0.6-2.6c0.1-0.6,0.6-0.8,1-0.8c0.1,0,0.2,0,0.3,0l0.2-1.1c-0.1,0-0.1,0-0.2,0c-0.5,0-0.8,0.3-1.1,0.7h0l0.1-0.6h-1.1 L55.2,36.1L55.2,36.1z M58,34.7l0,0.2c-0.2,0.8,0.1,1.4,1.3,1.4c0.9,0,1.7-0.4,1.9-1.3c0.1-0.6,0-1-0.7-1.2l-0.6-0.2 c-0.3-0.1-0.4-0.3-0.4-0.5c0.1-0.3,0.3-0.5,0.6-0.5c0.2,0,0.3,0.1,0.3,0.2c0.1,0.1,0.1,0.3,0,0.5h1l0-0.2c0.2-0.8-0.2-1.2-1.2-1.2 c-1.1,0-1.7,0.6-1.9,1.3c-0.1,0.6,0.1,1,0.7,1.2l0.7,0.3c0.2,0.1,0.4,0.2,0.3,0.5c-0.1,0.3-0.3,0.5-0.7,0.5c-0.4,0-0.5-0.2-0.4-0.6 l0-0.1H58L58,34.7z M65,33.9c0.2-0.9,0.4-1.4,0.9-1.4c0.5,0,0.5,0.5,0.3,1.4c-0.2,0.9-0.4,1.4-0.9,1.4C64.8,35.3,64.8,34.9,65,33.9 L65,33.9z M65.7,36.1h1.1l1.2-5.7h-1.1l-0.4,1.8h0c-0.2-0.3-0.4-0.5-0.8-0.5c-0.9,0-1.5,0.7-1.8,2.3c-0.3,1.6-0.1,2.3,0.8,2.3 c0.4,0,0.8-0.2,1.1-0.6h0L65.7,36.1L65.7,36.1z M71.1,34.1l0-0.2c0.3-1.3,0.2-2.2-1.1-2.2c-1.5,0-1.9,1.1-2.2,2.2 c-0.2,1.1-0.4,2.3,1.2,2.3c1,0,1.6-0.6,1.9-1.6h-1c-0.2,0.5-0.4,0.8-0.8,0.8c-0.4,0-0.4-0.5-0.3-1l0.1-0.3H71.1L71.1,34.1z M69.1,33.4l0-0.2c0.1-0.4,0.3-0.9,0.7-0.9c0.5,0,0.5,0.4,0.3,1H69.1L69.1,33.4z M71.6,36.1h1.1l0.8-3.5h0.6l0.2-0.7h-0.6l0.1-0.4 c0.1-0.2,0.2-0.3,0.5-0.3c0.1,0,0.1,0,0.2,0l0.2-0.8c-0.2,0-0.4,0-0.6,0c-0.7,0-1.2,0.3-1.4,1l-0.1,0.5H72l-0.2,0.7h0.6L71.6,36.1 L71.6,36.1z M77.4,34.1l0-0.2c0.3-1.3,0.2-2.2-1.1-2.2c-1.5,0-1.9,1.1-2.2,2.2c-0.2,1.1-0.4,2.3,1.2,2.3c1,0,1.6-0.6,1.9-1.6h-1 c-0.2,0.5-0.4,0.8-0.8,0.8c-0.4,0-0.4-0.5-0.3-1l0.1-0.3H77.4L77.4,34.1z M75.3,33.4l0-0.2c0.1-0.4,0.3-0.9,0.7-0.9 c0.5,0,0.5,0.4,0.3,1H75.3L75.3,33.4z M77.6,36.1h1.1l0.6-2.9c0.1-0.5,0.4-0.7,0.7-0.7c0.3,0,0.4,0.2,0.3,0.6l-0.6,3h1.1l0.7-3.2 c0.2-0.8-0.2-1.2-0.8-1.2c-0.5,0-0.9,0.2-1.2,0.6h0l0.1-0.5h-1.1L77.6,36.1L77.6,36.1z M83.1,33.9c0.2-0.9,0.4-1.4,0.9-1.4 c0.5,0,0.5,0.5,0.3,1.4c-0.2,0.9-0.4,1.4-0.9,1.4C82.9,35.3,82.9,34.9,83.1,33.9L83.1,33.9z M83.9,36.1h1.1l1.2-5.7H85l-0.4,1.8h0 c-0.2-0.3-0.4-0.5-0.8-0.5c-0.9,0-1.5,0.7-1.8,2.3c-0.3,1.6-0.1,2.3,0.8,2.3c0.4,0,0.8-0.2,1.1-0.6h0L83.9,36.1L83.9,36.1z M85.8,36.1h1.1l0.9-4.3h-1.1L85.8,36.1L85.8,36.1z M86.8,31.2h1.1l0.2-0.9H87L86.8,31.2L86.8,31.2z M87.7,36.1h1.1l0.6-2.9 c0.1-0.5,0.4-0.7,0.7-0.7c0.3,0,0.4,0.2,0.3,0.6l-0.6,3H91l0.7-3.2c0.2-0.8-0.2-1.2-0.8-1.2c-0.5,0-0.9,0.2-1.2,0.6h0l0.1-0.5h-1.1 L87.7,36.1L87.7,36.1z M94.9,31.8l-0.1,0.5h0c-0.1-0.4-0.5-0.6-0.8-0.6c-1.2,0-1.6,1.2-1.8,2.2c-0.3,1.6,0,2.2,0.9,2.2 c0.4,0,0.7-0.2,1-0.5h0L94,36.1c-0.1,0.4-0.3,0.8-0.8,0.8c-0.1,0-0.3,0-0.3-0.1c-0.1-0.1-0.1-0.2-0.1-0.3h-1.1 c-0.2,0.7,0.3,1.1,1.2,1.1c1.3,0,1.9-0.6,2.1-1.7l0.9-4.1H94.9L94.9,31.8z M93.2,34.1c0.2-1.2,0.4-1.5,0.9-1.5 c0.4,0,0.5,0.4,0.3,1.4c-0.2,0.7-0.4,1.2-0.9,1.2S93.1,34.7,93.2,34.1L93.2,34.1z M99,31.8h-0.6l-0.2,0.7h0.6L98.3,35 c-0.2,0.9-0.1,1.1,0.8,1.1c0.3,0,0.5,0,0.7,0l0.2-0.8c-0.1,0-0.2,0-0.2,0c-0.3,0-0.4-0.1-0.3-0.5l0.5-2.3h0.6l0.2-0.7h-0.6l0.3-1.2 h-1.1L99,31.8L99,31.8z M100.3,36.1h1.1l0.6-2.9c0.1-0.5,0.4-0.7,0.7-0.7c0.3,0,0.4,0.2,0.3,0.6l-0.6,3h1.1l0.7-3.2 c0.2-0.8-0.2-1.2-0.8-1.2c-0.5,0-0.9,0.2-1.2,0.6h0l0.4-1.8h-1.1L100.3,36.1L100.3,36.1z M107.9,34.1l0-0.2 c0.3-1.3,0.2-2.2-1.1-2.2c-1.5,0-1.9,1.1-2.2,2.2c-0.2,1.1-0.4,2.3,1.2,2.3c1,0,1.6-0.6,1.9-1.6h-1c-0.2,0.5-0.4,0.8-0.8,0.8 c-0.4,0-0.4-0.5-0.3-1l0.1-0.3H107.9L107.9,34.1z M105.9,33.4l0-0.2c0.1-0.4,0.3-0.9,0.7-0.9c0.5,0,0.5,0.4,0.3,1H105.9L105.9,33.4 z M111.6,33.9c0.2-0.9,0.4-1.4,0.9-1.4c0.5,0,0.5,0.5,0.3,1.4c-0.2,0.9-0.4,1.4-0.9,1.4C111.4,35.3,111.4,34.9,111.6,33.9 L111.6,33.9z M112.3,36.1h1.1l1.2-5.7h-1.1l-0.4,1.8h0c-0.2-0.3-0.4-0.5-0.8-0.5c-0.9,0-1.5,0.7-1.8,2.3c-0.3,1.6-0.1,2.3,0.8,2.3 c0.4,0,0.8-0.2,1.1-0.6h0L112.3,36.1L112.3,36.1z M117.8,34.1l0-0.2c0.3-1.3,0.2-2.2-1.1-2.2c-1.5,0-1.9,1.1-2.2,2.2 c-0.2,1.1-0.4,2.3,1.2,2.3c1,0,1.6-0.6,1.9-1.6h-1c-0.2,0.5-0.4,0.8-0.8,0.8c-0.4,0-0.4-0.5-0.3-1l0.1-0.3H117.8L117.8,34.1z M115.7,33.4l0-0.2c0.1-0.4,0.3-0.9,0.7-0.9c0.5,0,0.5,0.4,0.3,1H115.7L115.7,33.4z M121.5,34.1l0-0.2c0.3-1.3,0.2-2.2-1.1-2.2 c-1.5,0-1.9,1.1-2.2,2.2c-0.2,1.1-0.4,2.3,1.2,2.3c1,0,1.6-0.6,1.9-1.6h-1c-0.2,0.5-0.4,0.8-0.8,0.8c-0.4,0-0.4-0.5-0.3-1l0.1-0.3 H121.5L121.5,34.1z M119.5,33.4l0-0.2c0.1-0.4,0.3-0.9,0.7-0.9c0.5,0,0.5,0.4,0.3,1H119.5L119.5,33.4z M123.3,33.9 c0.2-0.9,0.4-1.4,0.9-1.4c0.5,0,0.5,0.5,0.3,1.4c-0.2,0.9-0.4,1.4-0.9,1.4C123.1,35.3,123.1,34.9,123.3,33.9L123.3,33.9z M121.5,37.5h1.1l0.4-1.8h0c0.2,0.3,0.4,0.5,0.8,0.5c0.9,0,1.5-0.7,1.8-2.3c0.3-1.6,0.1-2.3-0.8-2.3c-0.4,0-0.8,0.2-1.1,0.6h0 l0.1-0.5h-1.1L121.5,37.5L121.5,37.5z"></path> </g> </svg> 